<?xml version="1.0" encoding="iso-8859-1"?>
<!-- Generator: Adobe Illustrator 19.0.0, SVG Export Plug-In . SVG Version: 6.00 Build 0)  -->
<svg version="1.1" id="Layer_1" xmlns="http://www.w3.org/2000/svg" xmlns:xlink="http://www.w3.org/1999/xlink" x="0px" y="0px"
	 viewBox="0 0 512 512" style="enable-background:new 0 0 512 512;" xml:space="preserve">
<circle style="fill:#EBE9D3;" cx="233.143" cy="269.714" r="13.714"/>
<path style="fill:#65D3AF;" d="M301.714,64c0-25.205-20.509-45.714-45.714-45.714S210.286,38.795,210.286,64
	s20.509,45.714,45.714,45.714S301.714,89.205,301.714,64z M237.714,64c0,5.049-4.094,9.143-9.143,9.143
	c-5.049,0-9.143-4.094-9.143-9.143c0-20.165,16.406-36.571,36.571-36.571c5.049,0,9.143,4.094,9.143,9.143s-4.094,9.143-9.143,9.143
	C245.915,45.714,237.714,53.915,237.714,64z"/>
<path style="fill:#C4D455;" d="M256,219.429c-40.33,0-73.143,32.813-73.143,73.143S215.67,365.714,256,365.714
	s73.143-32.813,73.143-73.143S296.33,219.429,256,219.429z M233.143,301.714c-17.643,0-32-14.357-32-32s14.357-32,32-32
	s32,14.357,32,32S250.786,301.714,233.143,301.714z"/>
<g>
	<path style="fill:#65D3AF;" d="M438.857,402.286c-12.542,0-23.911,5.089-32.179,13.298l-0.448,0.492
		c-8.072,8.248-13.088,19.5-13.088,31.924c0,25.205,20.509,45.714,45.714,45.714c25.205,0,45.714-20.509,45.714-45.714
		C484.571,422.795,464.062,402.286,438.857,402.286z M438.857,429.714c-10.085,0-18.286,8.201-18.286,18.286
		c0,5.049-4.094,9.143-9.143,9.143s-9.143-4.094-9.143-9.143c0-20.165,16.406-36.571,36.571-36.571c5.049,0,9.143,4.094,9.143,9.143
		S443.906,429.714,438.857,429.714z"/>
	<path style="fill:#65D3AF;" d="M73.143,402.286c-25.205,0-45.714,20.509-45.714,45.714c0,25.205,20.509,45.714,45.714,45.714
		s45.714-20.509,45.714-45.714C118.857,422.795,98.348,402.286,73.143,402.286z M73.143,429.714
		c-10.085,0-18.286,8.201-18.286,18.286c0,5.049-4.094,9.143-9.143,9.143s-9.143-4.094-9.143-9.143
		c0-20.165,16.406-36.571,36.571-36.571c5.049,0,9.143,4.094,9.143,9.143S78.192,429.714,73.143,429.714z"/>
</g>
<g>
	<path style="fill:#314E55;" d="M233.143,237.714c-17.643,0-32,14.357-32,32s14.357,32,32,32s32-14.357,32-32
		S250.786,237.714,233.143,237.714z M233.143,283.429c-7.563,0-13.714-6.152-13.714-13.714c0-7.563,6.152-13.714,13.714-13.714
		s13.714,6.152,13.714,13.714C246.857,277.277,240.705,283.429,233.143,283.429z"/>
	<path style="fill:#314E55;" d="M438.857,384c-15.233,0-29.225,5.368-40.226,14.288l-64.421-58.607
		c8.332-13.78,13.218-29.865,13.218-47.11c0-47.329-36.148-86.363-82.286-90.965V127.27C296.106,122.81,320,96.179,320,64
		c0-35.29-28.71-64-64-64s-64,28.71-64,64c0,32.179,23.894,58.81,54.857,63.27v74.336c-46.138,4.603-82.286,43.636-82.286,90.965
		c0,17.239,4.883,33.321,13.211,47.098l-63.877,59.031C102.827,389.525,88.619,384,73.143,384c-35.29,0-64,28.71-64,64
		s28.71,64,64,64s64-28.71,64-64c0-13.234-4.038-25.544-10.947-35.76l62.619-57.87C205.536,372.534,229.424,384,256,384
		c26.576,0,50.465-11.467,67.185-29.631l63.02,57.334c-7.14,10.324-11.348,22.822-11.348,36.297c0,35.29,28.71,64,64,64
		s64-28.71,64-64S474.147,384,438.857,384z M73.143,493.714c-25.205,0-45.714-20.509-45.714-45.714
		c0-25.205,20.509-45.714,45.714-45.714s45.714,20.509,45.714,45.714C118.857,473.205,98.348,493.714,73.143,493.714z M210.286,64
		c0-25.205,20.509-45.714,45.714-45.714S301.714,38.795,301.714,64S281.205,109.714,256,109.714S210.286,89.205,210.286,64z
		 M256,365.714c-40.33,0-73.143-32.813-73.143-73.143S215.67,219.429,256,219.429s73.143,32.813,73.143,73.143
		S296.33,365.714,256,365.714z M438.857,493.714c-25.205,0-45.714-20.509-45.714-45.714c0-12.424,5.016-23.676,13.088-31.924
		l0.448-0.492c8.269-8.209,19.637-13.298,32.179-13.298c25.205,0,45.714,20.509,45.714,45.714
		C484.571,473.205,464.062,493.714,438.857,493.714z"/>
	<path style="fill:#314E55;" d="M438.857,411.429c-20.165,0-36.571,16.406-36.571,36.571c0,5.049,4.094,9.143,9.143,9.143
		s9.143-4.094,9.143-9.143c0-10.085,8.201-18.286,18.286-18.286c5.049,0,9.143-4.094,9.143-9.143S443.906,411.429,438.857,411.429z"
		/>
	<path style="fill:#314E55;" d="M73.143,411.429c-20.165,0-36.571,16.406-36.571,36.571c0,5.049,4.094,9.143,9.143,9.143
		s9.143-4.094,9.143-9.143c0-10.085,8.201-18.286,18.286-18.286c5.049,0,9.143-4.094,9.143-9.143S78.192,411.429,73.143,411.429z"/>
	<path style="fill:#314E55;" d="M265.143,36.571c0-5.049-4.094-9.143-9.143-9.143c-20.165,0-36.571,16.406-36.571,36.571
		c0,5.049,4.094,9.143,9.143,9.143c5.049,0,9.143-4.094,9.143-9.143c0-10.085,8.201-18.286,18.286-18.286
		C261.049,45.714,265.143,41.621,265.143,36.571z"/>
</g>
<g>
</g>
<g>
</g>
<g>
</g>
<g>
</g>
<g>
</g>
<g>
</g>
<g>
</g>
<g>
</g>
<g>
</g>
<g>
</g>
<g>
</g>
<g>
</g>
<g>
</g>
<g>
</g>
<g>
</g>
</svg>
