<?xml version="1.0" encoding="iso-8859-1"?>
<!-- Generator: Adobe Illustrator 19.0.0, SVG Export Plug-In . SVG Version: 6.00 Build 0)  -->
<svg version="1.1" id="Layer_1" xmlns="http://www.w3.org/2000/svg" xmlns:xlink="http://www.w3.org/1999/xlink" x="0px" y="0px"
	 viewBox="0 0 512 512" style="enable-background:new 0 0 512 512;" xml:space="preserve">
<g>
	<path style="fill:#F28544;" d="M291.31,196.295c0,17.442-12.742,31.874-29.388,34.711v9.427h29.474
		c19.422,0,35.224-15.845,35.224-35.319v-44.129H256C275.47,160.985,291.31,176.825,291.31,196.295z"/>
	<path style="fill:#F28544;" d="M185.379,205.114c0,19.474,15.802,35.319,35.224,35.319h23.664v-10.985
		c-13.689-4.864-23.578-17.817-23.578-33.153c0-19.47,15.84-35.31,35.31-35.31h-70.621V205.114z"/>
</g>
<circle style="fill:#65D3AF;" cx="256" cy="196.295" r="17.655"/>
<path style="fill:#E5D85A;" d="M388.155,212.351v32.733c0,4.875-3.953,8.828-8.828,8.828s-8.828-3.953-8.828-8.828v-51.94
	c0-0.455,0.192-0.845,0.259-1.28v-39.651c0-43.84-35.603-79.504-79.362-79.504h-70.793c-43.759,0-79.362,35.664-79.362,79.504
	v48.836c0,0.528-0.169,1.009-0.259,1.515v42.519c0,4.875-3.953,8.828-8.828,8.828c-4.875,0-8.828-3.953-8.828-8.828v-32.601
	c-64.561,17.362-105.672,46.834-105.672,76.502c0,44.763,95.772,92.69,238.345,92.69s238.345-47.927,238.345-92.69
	C494.345,259.238,453.01,229.694,388.155,212.351z M344.276,205.114c0,29.211-23.72,52.974-52.879,52.974h-70.793
	c-29.16,0-52.879-23.763-52.879-52.974v-52.957c0-4.875,3.953-8.828,8.828-8.828h158.897c4.875,0,8.828,3.953,8.828,8.828V205.114z"
	/>
<g>
	<path style="fill:#314E55;" d="M512,288.985c0-39.896-46.043-75.103-123.586-94.854v-41.918c0-53.573-43.522-97.16-97.017-97.16
		h-70.793c-53.496,0-97.017,43.586-97.017,97.16v39.651c-0.066,0.435-0.259,0.825-0.259,1.28v1.058
		C45.944,213.965,0,249.134,0,288.985c0,56.659,94.312,102.05,220.431,109.304v49.83c0,4.875,3.953,8.828,8.828,8.828
		c4.875,0,8.828-3.953,8.828-8.828v-49.074c5.92,0.169,11.878,0.286,17.914,0.286c8.867,0,17.614-0.188,26.224-0.549v49.338
		c0,4.875,3.953,8.828,8.828,8.828s8.828-3.953,8.828-8.828v-50.368C421.806,389.019,512,344.392,512,288.985z M256,381.675
		c-142.573,0-238.345-47.927-238.345-92.69c0-29.668,41.112-59.14,105.672-76.502v32.601c0,4.875,3.953,8.828,8.828,8.828
		c4.875,0,8.828-3.953,8.828-8.828v-42.52c0.09-0.506,0.259-0.987,0.259-1.515v-48.836c0-43.84,35.603-79.504,79.362-79.504h70.793
		c43.759,0,79.362,35.664,79.362,79.504v39.651c-0.066,0.435-0.259,0.825-0.259,1.28v51.94c0,4.875,3.953,8.828,8.828,8.828
		s8.828-3.953,8.828-8.828v-32.733c64.855,17.342,106.19,46.887,106.19,76.633C494.345,333.748,398.573,381.675,256,381.675z"/>
	<path style="fill:#314E55;" d="M335.448,143.33H176.552c-4.875,0-8.828,3.953-8.828,8.828v52.957
		c0,29.211,23.72,52.974,52.879,52.974h70.793c29.16,0,52.879-23.763,52.879-52.974v-52.957
		C344.276,147.282,340.323,143.33,335.448,143.33z M256,213.95c-9.737,0-17.655-7.918-17.655-17.655
		c0-9.737,7.918-17.655,17.655-17.655s17.655,7.918,17.655,17.655C273.655,206.032,265.737,213.95,256,213.95z M326.621,205.114
		c0,19.474-15.802,35.319-35.224,35.319h-29.474v-9.427c16.646-2.837,29.388-17.269,29.388-34.711c0-19.47-15.84-35.31-35.31-35.31
		s-35.31,15.84-35.31,35.31c0,15.336,9.888,28.289,23.578,33.153v10.985h-23.664c-19.422,0-35.224-15.845-35.224-35.319v-44.129H256
		h70.621V205.114z"/>
</g>
<g>
</g>
<g>
</g>
<g>
</g>
<g>
</g>
<g>
</g>
<g>
</g>
<g>
</g>
<g>
</g>
<g>
</g>
<g>
</g>
<g>
</g>
<g>
</g>
<g>
</g>
<g>
</g>
<g>
</g>
</svg>
