<?xml version="1.0" standalone="no"?>
<!DOCTYPE svg PUBLIC "-//W3C//DTD SVG 20010904//EN"
 "http://www.w3.org/TR/2001/REC-SVG-20010904/DTD/svg10.dtd">
<svg version="1.0" xmlns="http://www.w3.org/2000/svg"
 width="700.000000pt" height="700.000000pt" viewBox="0 0 700.000000 700.000000"
 preserveAspectRatio="xMidYMid meet">
<metadata>
Created by potrace 1.11, written by Peter Selinger 2001-2013
</metadata>
<g transform="translate(0.000000,700.000000) scale(0.100000,-0.100000)"
fill="#000000" stroke="none">
<path d="M3421 6244 c-229 -61 -382 -297 -341 -525 44 -252 282 -427 528 -389
310 48 483 381 347 668 -94 198 -322 303 -534 246z"/>
<path d="M3465 4739 c-243 -35 -426 -287 -386 -531 45 -274 312 -451 576 -383
342 89 464 518 220 774 -108 113 -253 163 -410 140z"/>
<path d="M1915 4719 c-365 -126 -432 -616 -113 -829 286 -191 663 -25 719 316
37 228 -113 461 -336 520 -76 21 -199 17 -270 -7z"/>
<path d="M4798 4721 c-214 -69 -355 -296 -319 -514 26 -156 124 -286 267 -354
77 -37 82 -38 194 -38 109 0 119 2 183 32 89 42 140 83 193 156 155 211 95
525 -127 668 -107 68 -269 89 -391 50z"/>
<path d="M1955 3216 c-159 -39 -303 -179 -345 -335 -19 -71 -14 -197 10 -265
75 -217 294 -353 510 -317 255 42 432 284 391 533 -45 271 -305 448 -566 384z"/>
<path d="M3419 3216 c-226 -63 -380 -301 -340 -527 41 -229 231 -390 461 -390
260 -1 461 200 461 462 1 220 -136 399 -346 455 -62 17 -175 16 -236 0z"/>
<path d="M4843 3219 c-109 -21 -236 -110 -298 -209 -118 -187 -87 -430 76
-585 105 -101 252 -149 385 -127 314 52 488 387 348 670 -94 193 -300 293
-511 251z"/>
<path d="M2000 1709 c-314 -44 -495 -382 -356 -664 60 -121 162 -208 290 -247
55 -17 85 -20 158 -16 80 5 99 10 173 47 286 142 350 509 128 742 -64 68 -166
124 -241 134 -26 3 -58 7 -72 9 -14 1 -50 -1 -80 -5z"/>
<path d="M4900 1713 c-111 -10 -203 -55 -287 -138 -173 -173 -187 -430 -34
-623 82 -103 227 -172 360 -172 210 0 395 143 451 350 31 114 6 267 -60 371
-92 143 -262 227 -430 212z"/>
</g>
</svg>
