<svg version="1.1" id="Layer_1" xmlns="http://www.w3.org/2000/svg" x="0" y="0" viewBox="0 0 512 512" xml:space="preserve"><path fill="#5ecc66" d="M269.097 306.135l-63.235-63.234-31.617 31.617 25.295 25.295 12.645 12.645 25.295 25.295z"/><g fill="#73c9c9"><path transform="rotate(134.999 88.884 94.299)" d="M66.527 58.529h44.712v71.539H66.527z"/><path transform="rotate(134.999 126.822 56.374)" d="M113.408 20.605h26.827v71.539h-26.827z"/><path transform="rotate(134.999 190.05 119.598)" d="M176.635 83.828h26.827v71.539h-26.827z"/></g><path d="M300.715 274.518l75.884-75.884c17.431-17.426 17.426-45.791-.004-63.226-8.44-8.44-20.064-12.92-31.63-13.082-11.947 0-23.164 4.642-31.596 13.073l-75.889 75.889 63.235 63.23z" fill="#5ecc66"/><g fill="#73c9c9"><path transform="rotate(134.999 152.116 157.543)" d="M129.759 121.773h44.712v71.539h-44.712z"/><path transform="rotate(134.999 417.67 423.133)" d="M395.311 387.362h44.712v71.539h-44.712z"/><path transform="rotate(134.999 354.46 359.887)" d="M332.103 324.116h44.712v71.539h-44.712z"/><path transform="rotate(134.999 455.647 385.158)" d="M442.23 349.388h26.827v71.539H442.23z"/><path transform="rotate(134.999 392.4 321.928)" d="M378.983 286.158h26.827v71.539h-26.827z"/></g><g fill="#314e55"><path d="M155.277 217.61a8.916 8.916 0 006.323 2.62 8.914 8.914 0 006.323-2.62l37.94-37.94 12.645-12.645 25.295-25.295a8.94 8.94 0 000-12.645L186.89 72.173l-12.645-12.645L117.337 2.62a8.94 8.94 0 00-12.645 0L79.399 27.913l-.002-.002-12.645 12.644.002.002L28.812 78.5a8.94 8.94 0 000 12.645L155.277 217.61zm6.323-18.968l-50.587-50.587 31.617-31.62 50.587 50.59-31.617 31.617zm63.235-63.234l-18.972 18.972-50.588-50.59 18.971-18.972 50.589 50.59zM111.014 21.588L161.6 72.173l-18.97 18.971-50.586-50.587 18.97-18.969zM79.399 53.203l50.585 50.587-31.617 31.62L47.78 84.822l31.619-31.619zm429.979 341.458L382.913 268.195a8.94 8.94 0 00-12.645 0l-75.88 75.88a8.944 8.944 0 000 12.646l126.47 126.465a8.944 8.944 0 0012.646 0l37.939-37.941.001.001 12.645-12.645-.002-.002 25.292-25.293a8.94 8.94 0 00-.001-12.645zM376.59 287.163l50.59 50.59-18.971 18.969-50.589-50.589 18.97-18.97zm-31.615 31.615l50.588 50.588-31.62 31.618-50.588-50.587 31.62-31.619zm82.205 145.44l-50.59-50.588 31.619-31.617 50.587 50.587-31.616 31.618zm44.261-44.264l-50.586-50.586 18.971-18.969 50.585 50.585-18.97 18.97zM300.715 299.809l88.53-88.53c24.404-24.395 24.404-64.108-.004-88.517-11.807-11.807-27.517-18.313-44.241-18.322h-.035c-16.724 0-32.434 6.502-44.241 18.313l-88.534 88.534 88.525 88.522zm12.653-164.41c8.432-8.432 19.649-13.073 31.596-13.073 11.567.162 23.19 4.642 31.63 13.082 17.431 17.435 17.435 45.8.004 63.226l-75.884 75.884-63.235-63.23 75.889-75.889zm-18.98 170.736l-88.525-88.525-56.908 56.908 37.94 37.94-69.602 69.605 12.645 12.645 69.602-69.605 37.94 37.94 56.908-56.908zm-94.848-6.322l-25.295-25.295 31.617-31.617 63.235 63.235-31.617 31.617-25.295-25.295-12.645-12.645z"/><path d="M61.062 316.798a8.943 8.943 0 00-8.942 8.942c0 73.963 60.174 134.137 134.137 134.137a8.943 8.943 0 000-17.884c-64.104 0-116.252-52.148-116.252-116.252a8.943 8.943 0 00-8.943-8.943z"/><path d="M187.794 494.115c-93.686 0-169.907-76.221-169.907-169.907a8.943 8.943 0 00-17.884 0C.002 427.758 84.244 512 187.794 512a8.943 8.943 0 000-17.885z"/></g></svg>