<?xml version="1.0" encoding="UTF-8" standalone="no"?>
<svg
   xmlns:dc="http://purl.org/dc/elements/1.1/"
   xmlns:cc="http://creativecommons.org/ns#"
   xmlns:rdf="http://www.w3.org/1999/02/22-rdf-syntax-ns#"
   xmlns:svg="http://www.w3.org/2000/svg"
   xmlns="http://www.w3.org/2000/svg"
   height="24.677723"
   width="14.664"
   id="svg3082"
   xml:space="preserve"
   enable-background="new 0 0 100 100"
   viewBox="0 0 14.664 24.677723"
   y="0px"
   x="0px"
   version="1.1"><metadata
     id="metadata3104"><rdf:RDF><cc:Work
         rdf:about=""><dc:format>image/svg+xml</dc:format><dc:type
           rdf:resource="http://purl.org/dc/dcmitype/StillImage" /><dc:title></dc:title></cc:Work></rdf:RDF></metadata><defs
     id="defs3102" /><path
     d="m 3.612,7.6379996 c 0,1.001 -0.806,1.803 -1.806,1.803 -0.971,0 -1.806,-0.802 -1.806,-1.803 0,-1.001 0.834,-1.807 1.806,-1.807 1.001,0 1.806,0.806 1.806,1.807 z m 0,5.8279994 c 0,1.001 -0.806,1.807 -1.806,1.807 -0.971,0 -1.806,-0.806 -1.806,-1.807 0,-0.999 0.834,-1.803 1.806,-1.803 1.001,0 1.806,0.804 1.806,1.803 z m 0,5.834 c 0,0.997 -0.806,1.803 -1.806,1.803 -0.971,0 -1.806,-0.806 -1.806,-1.803 0,-1.001 0.834,-1.807 1.806,-1.807 1.001,10e-4 1.806,0.806 1.806,1.807 z"
     id="path3086" /><path
     d="m 14.664,7.6379982 c 0,1.001 -0.806,1.803 -1.806,1.803 -0.971,0 -1.806,-0.802 -1.806,-1.803 0,-1.001 0.835,-1.807 1.806,-1.807 1.001,0 1.806,0.806 1.806,1.807 z m 0,5.8279998 c 0,1.001 -0.806,1.807 -1.806,1.807 -0.971,0 -1.806,-0.806 -1.806,-1.807 0,-0.999 0.835,-1.803 1.806,-1.803 1.001,0 1.806,0.804 1.806,1.803 z m 0,5.834001 c 0,0.997 -0.806,1.803 -1.806,1.803 -0.971,0 -1.806,-0.806 -1.806,-1.803 0,-1.001 0.835,-1.807 1.806,-1.807 1.001,10e-4 1.806,0.806 1.806,1.807 z"
     id="path3088" /><path
     d="m 9.1379999,1.8070006 c 0,1.001 -0.806,1.803 -1.806,1.803 -0.971,0 -1.806,-0.802 -1.806,-1.803 0,-1.001 0.834,-1.80699999 1.806,-1.80699999 1.001,0 1.806,0.80599999 1.806,1.80699999 z m 0,5.8279994 c 0,1.001 -0.806,1.8070001 -1.806,1.8070001 -0.971,0 -1.806,-0.8060001 -1.806,-1.8070001 0,-0.999 0.834,-1.803 1.806,-1.803 1.001,0 1.806,0.804 1.806,1.803 z m 0,5.834 c 0,0.997 -0.806,1.803 -1.806,1.803 -0.971,0 -1.806,-0.806 -1.806,-1.803 0,-1.001 0.834,-1.807 1.806,-1.807 1.001,10e-4 1.806,0.806 1.806,1.807 z"
     id="path3086-5" /></svg>
