<?xml version="1.0" ?><!DOCTYPE svg  PUBLIC '-//W3C//DTD SVG 1.1//EN'
	'http://www.w3.org/Graphics/SVG/1.1/DTD/svg11.dtd'>
<svg enable-background="new 0 0 24 24" height="24px" id="Слой_1" version="1.1" viewBox="0 0 32 32" width="24px" xml:space="preserve" xmlns="http://www.w3.org/2000/svg" xmlns:xlink="http://www.w3.org/1999/xlink"><path d="M1.06,29.897c0.011,0,0.023,0,0.034-0.001c0.506-0.017,0.825-0.409,0.868-0.913  c0.034-0.371,1.03-9.347,15.039-9.337l0.031,5.739c0,0.387,0.223,0.739,0.573,0.904c0.347,0.166,0.764,0.115,1.061-0.132  l12.968-10.743c0.232-0.19,0.366-0.475,0.365-0.774c-0.001-0.3-0.136-0.584-0.368-0.773L18.664,3.224  c-0.299-0.244-0.712-0.291-1.06-0.128c-0.349,0.166-0.571,0.518-0.571,0.903l-0.031,5.613c-5.812,0.185-10.312,2.054-13.23,5.468  c-4.748,5.556-3.688,13.63-3.639,13.966C0.207,29.536,0.566,29.897,1.06,29.897z M18.032,17.63c-0.001,0-0.002,0-0.002,0  C8.023,17.636,4.199,21.015,2.016,23.999c0.319-2.391,1.252-5.272,3.281-7.626c2.698-3.128,7.045-4.776,12.735-4.776  c0.553,0,1-0.447,1-1V6.104l10.389,8.542l-10.389,8.622V18.63c0-0.266-0.105-0.521-0.294-0.708  C18.551,17.735,18.297,17.63,18.032,17.63z" fill="#121313" id="Arrow_Right_2_"/><g/><g/><g/><g/><g/><g/></svg>
