<svg width="180" height="180" viewBox="0 0 180 180" fill="none" xmlns="http://www.w3.org/2000/svg">
<path d="M139 70.0688C139 76.7543 133.645 82.1108 127 82.1108C120.548 82.1108 115 76.7543 115 70.0688C115 63.3832 120.548 58 127 58C133.651 58 139 63.3832 139 70.0688Z" fill="black"/>
<path d="M139 108.993C139 115.679 133.645 121.062 127 121.062C120.548 121.062 115 115.679 115 108.993C115 102.321 120.548 96.9513 127 96.9513C133.651 96.9513 139 102.321 139 108.993Z" fill="black"/>
<path d="M139 147.958C139 154.617 133.645 160 127 160C120.548 160 115 154.617 115 147.958C115 141.272 120.548 135.889 127 135.889C133.651 135.896 139 141.272 139 147.958Z" fill="black"/>
<path d="M103 31.0688C103 37.7543 97.6445 43.1108 91 43.1108C84.5482 43.1108 79 37.7543 79 31.0688C79 24.3832 84.5415 19 91 19C97.6512 19 103 24.3832 103 31.0688Z" fill="black"/>
<path d="M103 69.9933C103 76.6789 97.6445 82.0621 91 82.0621C84.5482 82.0621 79 76.6789 79 69.9933C79 63.3211 84.5415 57.9513 91 57.9513C97.6512 57.9513 103 63.3211 103 69.9933Z" fill="black"/>
<path d="M103 108.958C103 115.617 97.6445 121 91 121C84.5482 121 79 115.617 79 108.958C79 102.272 84.5415 96.8892 91 96.8892C97.6512 96.8959 103 102.272 103 108.958Z" fill="black"/>
<path d="M65 70.0688C65 76.7543 59.6445 82.1108 53 82.1108C46.5482 82.1108 41 76.7543 41 70.0688C41 63.3832 46.5415 58 53 58C59.6512 58 65 63.3832 65 70.0688Z" fill="black"/>
<path d="M65 108.993C65 115.679 59.6445 121.062 53 121.062C46.5482 121.062 41 115.679 41 108.993C41 102.321 46.5415 96.9513 53 96.9513C59.6512 96.9513 65 102.321 65 108.993Z" fill="black"/>
<path d="M65 147.958C65 154.617 59.6445 160 53 160C46.5482 160 41 154.617 41 147.958C41 141.272 46.5415 135.889 53 135.889C59.6512 135.896 65 141.272 65 147.958Z" fill="black"/>
</svg>
