<svg xmlns="http://www.w3.org/2000/svg" xmlns:xlink="http://www.w3.org/1999/xlink"><symbol id="arrow" viewBox="0 0 32 32"><path d="M1.06 29.897l.034-.001c.506-.017.825-.409.868-.913.034-.371 1.03-9.347 15.039-9.337l.031 5.739a.999.999 0 001.634.772l12.968-10.743a.997.997 0 00-.003-1.547L18.664 3.224a1 1 0 00-1.631.775l-.031 5.613c-5.812.185-10.312 2.054-13.23 5.468C-.976 20.636.084 28.71.133 29.046c.074.49.433.851.927.851zM18.032 17.63h-.002c-10.007.006-13.831 3.385-16.014 6.369.319-2.391 1.252-5.272 3.281-7.626 2.698-3.128 7.045-4.776 12.735-4.776a1 1 0 001-1V6.104l10.389 8.542-10.389 8.622V18.63a.998.998 0 00-1-1z" fill="#121313"/></symbol><symbol id="check" viewBox="0 0 32 32"><path clip-rule="evenodd" d="M27.704 8.397a1.016 1.016 0 00-1.428 0L11.988 22.59l-6.282-6.193a1.016 1.016 0 00-1.428 0 .994.994 0 000 1.414l6.999 6.899c.39.386 1.039.386 1.429 0L27.704 9.811a.992.992 0 000-1.414c-.394-.391.395.39 0 0z" fill="#121313" fill-rule="evenodd"/></symbol><symbol id="nitro" viewBox="0 0 14.664 24.678"><path d="M3.612 7.638a1.8 1.8 0 01-1.806 1.803A1.818 1.818 0 010 7.638c0-1.001.834-1.807 1.806-1.807 1.001 0 1.806.806 1.806 1.807zm0 5.828a1.803 1.803 0 01-1.806 1.807A1.822 1.822 0 010 13.466c0-.999.834-1.803 1.806-1.803a1.8 1.8 0 011.806 1.803zm0 5.834c0 .997-.806 1.803-1.806 1.803A1.82 1.82 0 010 19.3c0-1.001.834-1.807 1.806-1.807A1.803 1.803 0 013.612 19.3zM14.664 7.638a1.8 1.8 0 01-1.806 1.803 1.818 1.818 0 01-1.806-1.803c0-1.001.835-1.807 1.806-1.807 1.001 0 1.806.806 1.806 1.807zm0 5.828a1.803 1.803 0 01-1.806 1.807 1.822 1.822 0 01-1.806-1.807 1.82 1.82 0 011.806-1.803 1.8 1.8 0 011.806 1.803zm0 5.834c0 .997-.806 1.803-1.806 1.803a1.82 1.82 0 01-1.806-1.803c0-1.001.835-1.807 1.806-1.807a1.803 1.803 0 011.806 1.807zM9.138 1.807A1.8 1.8 0 017.332 3.61a1.818 1.818 0 01-1.806-1.803C5.526.806 6.36 0 7.332 0c1.001 0 1.806.806 1.806 1.807zm0 5.828a1.803 1.803 0 01-1.806 1.807 1.822 1.822 0 01-1.806-1.807c0-.999.834-1.803 1.806-1.803a1.8 1.8 0 011.806 1.803zm0 5.834c0 .997-.806 1.803-1.806 1.803a1.82 1.82 0 01-1.806-1.803c0-1.001.834-1.807 1.806-1.807a1.803 1.803 0 011.806 1.807z"/></symbol></svg>