<?xml version="1.0" encoding="iso-8859-1"?>
<!-- Generator: Adobe Illustrator 19.0.0, SVG Export Plug-In . SVG Version: 6.00 Build 0)  -->
<svg version="1.1" id="Layer_1" xmlns="http://www.w3.org/2000/svg" xmlns:xlink="http://www.w3.org/1999/xlink" x="0px" y="0px"
	 viewBox="0 0 512 512" style="enable-background:new 0 0 512 512;" xml:space="preserve">
<g>
	<path style="fill:#F28544;" d="M205.714,329.143c-22.688,0-41.143,18.455-41.143,41.143s18.455,41.143,41.143,41.143
		s41.143-18.455,41.143-41.143S228.402,329.143,205.714,329.143z"/>
	<path style="fill:#F28544;" d="M402.286,274.286c-15.125,0-27.429,12.304-27.429,27.429s12.304,27.429,27.429,27.429
		s27.429-12.304,27.429-27.429S417.411,274.286,402.286,274.286z"/>
	<circle style="fill:#F28544;" cx="123.429" cy="214.857" r="13.714"/>
	<path style="fill:#F28544;" d="M269.714,100.571c-12.603,0-22.857,10.254-22.857,22.857s10.254,22.857,22.857,22.857
		s22.857-10.254,22.857-22.857S282.317,100.571,269.714,100.571z"/>
</g>
<path style="fill:#73C9C9;" d="M466.772,145.978c-1.67,0.205-3.362,0.308-5.058,0.308c-22.688,0-41.143-18.455-41.143-41.143
	c0-5.96,1.263-11.746,3.692-17.062C379.371,43.013,319.884,18.286,256,18.286C124.924,18.286,18.286,124.924,18.286,256
	c0,4.607,0.134,9.254,0.397,13.875c21.585,9.223,36.174,30.866,36.174,54.696c0,13.228-4.326,25.866-12.295,36.21
	C82.384,441.728,165.518,493.714,256,493.714c32.08,0,63.085-6.245,92.286-18.571c-0.571-2.897-0.857-5.857-0.857-8.857
	c0-25.205,20.509-45.714,45.714-45.714c9.513,0,18.54,2.862,26.138,8.187c47.402-44.83,74.433-107.344,74.433-172.759
	C493.714,217.634,484.42,179.741,466.772,145.978z M123.429,246.857c-17.643,0-32-14.357-32-32s14.357-32,32-32s32,14.357,32,32
	S141.072,246.857,123.429,246.857z M205.714,429.714c-32.768,0-59.429-26.661-59.429-59.429s26.661-59.429,59.429-59.429
	s59.429,26.661,59.429,59.429S238.482,429.714,205.714,429.714z M269.714,164.571c-22.688,0-41.143-18.455-41.143-41.143
	s18.455-41.143,41.143-41.143s41.143,18.455,41.143,41.143S292.402,164.571,269.714,164.571z M402.286,347.429
	c-25.205,0-45.714-20.509-45.714-45.714S377.08,256,402.286,256S448,276.509,448,301.714S427.491,347.429,402.286,347.429z"/>
<g>
	<path style="fill:#314E55;" d="M479.531,131.138c-2.129-3.808-6.647-5.576-10.786-4.237c-2.259,0.728-4.625,1.098-7.031,1.098
		c-12.603,0-22.857-10.254-22.857-22.857c0-4.772,1.451-9.339,4.201-13.205c2.522-3.554,2.187-8.397-0.804-11.567
		C393.366,28.54,327.219,0,256,0C114.839,0,0,114.839,0,256c0,7.04,0.29,14.161,0.862,21.165c0.304,3.75,2.871,6.928,6.473,8.013
		c17.214,5.192,29.237,21.388,29.237,39.393c0,10.656-4.058,20.763-11.424,28.451c-2.598,2.714-3.272,6.746-1.696,10.156
		C65.187,453.585,156.469,512,256,512c37.402,0,73.46-7.888,107.165-23.442c4.455-2.058,6.496-7.268,4.616-11.799
		c-1.371-3.317-2.067-6.839-2.067-10.473c0-15.125,12.304-27.429,27.429-27.429c7.531,0,14.554,2.991,19.777,8.42
		c3.397,3.54,8.973,3.75,12.647,0.513C480.496,399.192,512,329.286,512,256C512,212.259,500.772,169.08,479.531,131.138z
		 M419.281,428.759c-7.598-5.326-16.625-8.187-26.138-8.187c-25.205,0-45.714,20.509-45.714,45.714c0,3,0.286,5.96,0.857,8.857
		c-29.201,12.326-60.205,18.571-92.286,18.571c-90.482,0-173.616-51.986-213.437-132.933c7.969-10.344,12.295-22.982,12.295-36.21
		c0-23.83-14.589-45.473-36.174-54.696c-0.263-4.621-0.397-9.268-0.397-13.875C18.286,124.924,124.924,18.286,256,18.286
		c63.884,0,123.371,24.728,168.263,69.795c-2.429,5.317-3.692,11.103-3.692,17.062c0,22.688,18.455,41.143,41.143,41.143
		c1.696,0,3.388-0.103,5.058-0.308c17.647,33.763,26.942,71.656,26.942,110.022C493.714,321.415,466.683,383.929,419.281,428.759z"
		/>
	<path style="fill:#314E55;" d="M269.714,82.286c-22.688,0-41.143,18.455-41.143,41.143s18.455,41.143,41.143,41.143
		s41.143-18.455,41.143-41.143S292.402,82.286,269.714,82.286z M269.714,146.286c-12.603,0-22.857-10.254-22.857-22.857
		s10.254-22.857,22.857-22.857s22.857,10.254,22.857,22.857S282.317,146.286,269.714,146.286z"/>
	<path style="fill:#314E55;" d="M402.286,256c-25.205,0-45.714,20.509-45.714,45.714s20.509,45.714,45.714,45.714
		S448,326.92,448,301.714S427.491,256,402.286,256z M402.286,329.143c-15.125,0-27.429-12.304-27.429-27.429
		s12.304-27.429,27.429-27.429s27.429,12.304,27.429,27.429S417.411,329.143,402.286,329.143z"/>
	<path style="fill:#314E55;" d="M205.714,310.857c-32.768,0-59.429,26.661-59.429,59.429s26.661,59.429,59.429,59.429
		s59.429-26.661,59.429-59.429S238.482,310.857,205.714,310.857z M205.714,411.429c-22.688,0-41.143-18.455-41.143-41.143
		s18.455-41.143,41.143-41.143s41.143,18.455,41.143,41.143S228.402,411.429,205.714,411.429z"/>
	<path style="fill:#314E55;" d="M123.429,182.857c-17.643,0-32,14.357-32,32s14.357,32,32,32s32-14.357,32-32
		S141.072,182.857,123.429,182.857z M123.429,228.571c-7.563,0-13.714-6.152-13.714-13.714c0-7.563,6.152-13.714,13.714-13.714
		s13.714,6.152,13.714,13.714C137.143,222.42,130.991,228.571,123.429,228.571z"/>
</g>
<g>
</g>
<g>
</g>
<g>
</g>
<g>
</g>
<g>
</g>
<g>
</g>
<g>
</g>
<g>
</g>
<g>
</g>
<g>
</g>
<g>
</g>
<g>
</g>
<g>
</g>
<g>
</g>
<g>
</g>
</svg>
