<?xml version="1.0" encoding="iso-8859-1"?>
<!-- Generator: Adobe Illustrator 19.0.0, SVG Export Plug-In . SVG Version: 6.00 Build 0)  -->
<svg version="1.1" id="Layer_1" xmlns="http://www.w3.org/2000/svg" xmlns:xlink="http://www.w3.org/1999/xlink" x="0px" y="0px"
	 viewBox="0 0 512 512" style="enable-background:new 0 0 512 512;" xml:space="preserve">
<polygon style="fill:#5ECC66;" points="269.097,306.135 205.862,242.901 174.245,274.518 199.54,299.813 212.185,312.458 
	237.48,337.753 "/>
<g>
	
		<rect x="66.527" y="58.529" transform="matrix(-0.7071 0.7071 -0.7071 -0.7071 218.4125 98.1272)" style="fill:#73C9C9;" width="44.712" height="71.539"/>
	
		<rect x="113.408" y="20.605" transform="matrix(-0.7071 0.7071 -0.7071 -0.7071 256.3605 6.5606)" style="fill:#73C9C9;" width="26.827" height="71.539"/>
	
		<rect x="176.635" y="83.828" transform="matrix(-0.7071 0.7071 -0.7071 -0.7071 409.0019 69.781)" style="fill:#73C9C9;" width="26.827" height="71.539"/>
</g>
<path style="fill:#5ECC66;" d="M300.715,274.518l75.884-75.884c17.431-17.426,17.426-45.791-0.004-63.226
	c-8.44-8.44-20.064-12.92-31.63-13.082c-11.947,0-23.164,4.642-31.596,13.073l-75.889,75.889L300.715,274.518z"/>
<g>
	
		<rect x="129.759" y="121.773" transform="matrix(-0.7071 0.7071 -0.7071 -0.7071 371.0749 161.3802)" style="fill:#73C9C9;" width="44.712" height="71.539"/>
	
		<rect x="395.311" y="387.362" transform="matrix(-0.7071 0.7071 -0.7071 -0.7071 1012.2019 426.9949)" style="fill:#73C9C9;" width="44.712" height="71.539"/>
	
		<rect x="332.103" y="324.116" transform="matrix(-0.7071 0.7071 -0.7071 -0.7071 859.5761 363.7233)" style="fill:#73C9C9;" width="44.712" height="71.539"/>
	
		<rect x="442.23" y="349.388" transform="matrix(-0.7071 0.7071 -0.7071 -0.7071 1050.1801 335.3153)" style="fill:#73C9C9;" width="26.827" height="71.539"/>
	
		<rect x="378.983" y="286.158" transform="matrix(-0.7071 0.7071 -0.7071 -0.7071 897.5004 272.0976)" style="fill:#73C9C9;" width="26.827" height="71.539"/>
</g>
<g>
	<path style="fill:#314E55;" d="M155.277,217.61c1.746,1.746,4.035,2.62,6.323,2.62c2.288,0,4.576-0.873,6.323-2.62l37.94-37.94
		l12.645-12.645l25.295-25.295c3.493-3.493,3.493-9.152,0-12.645L186.89,72.173l-12.645-12.645L117.337,2.62
		c-3.493-3.493-9.152-3.493-12.645,0L79.399,27.913l-0.002-0.002L66.752,40.555l0.002,0.002L28.812,78.5
		c-3.493,3.493-3.493,9.152,0,12.645L155.277,217.61z M161.6,198.642l-50.587-50.587l31.617-31.62l50.587,50.59L161.6,198.642z
		 M224.835,135.408l-18.972,18.972l-50.588-50.59l18.971-18.972L224.835,135.408z M111.014,21.588L161.6,72.173L142.63,91.144
		L92.044,40.557L111.014,21.588z M79.399,53.203l50.585,50.587L98.367,135.41L47.78,84.822L79.399,53.203z"/>
	<path style="fill:#314E55;" d="M509.378,394.661L382.913,268.195c-3.493-3.493-9.152-3.493-12.645,0l-75.88,75.88
		c-1.677,1.677-2.62,3.952-2.62,6.323s0.943,4.646,2.62,6.323l126.47,126.465c1.677,1.677,3.952,2.62,6.323,2.62
		s4.646-0.943,6.323-2.62l37.939-37.941l0.001,0.001l12.645-12.645l-0.002-0.002l25.292-25.293
		C512.871,403.813,512.871,398.154,509.378,394.661z M376.59,287.163l50.59,50.59l-18.971,18.969l-50.589-50.589L376.59,287.163z
		 M344.975,318.778l50.588,50.588l-31.62,31.618l-50.588-50.587L344.975,318.778z M427.18,464.218l-50.59-50.588l31.619-31.617
		l50.587,50.587L427.18,464.218z M471.441,419.954l-50.586-50.586l18.971-18.969l50.585,50.585L471.441,419.954z"/>
	<path style="fill:#314E55;" d="M300.715,299.809l88.53-88.53c24.404-24.395,24.404-64.108-0.004-88.517
		c-11.807-11.807-27.517-18.313-44.241-18.322c-0.013,0-0.022,0-0.035,0c-16.724,0-32.434,6.502-44.241,18.313l-88.534,88.534
		L300.715,299.809z M313.368,135.399c8.432-8.432,19.649-13.073,31.596-13.073c11.567,0.162,23.19,4.642,31.63,13.082
		c17.431,17.435,17.435,45.8,0.004,63.226l-75.884,75.884l-63.235-63.23L313.368,135.399z"/>
	<path style="fill:#314E55;" d="M294.388,306.135l-88.525-88.525l-56.908,56.908l37.94,37.94l-69.602,69.605l12.645,12.645
		l69.602-69.605l37.94,37.94L294.388,306.135z M199.54,299.813l-25.295-25.295l31.617-31.617l63.235,63.235l-31.617,31.617
		l-25.295-25.295L199.54,299.813z"/>
	<path style="fill:#314E55;" d="M61.062,316.798c-4.938,0-8.942,4.004-8.942,8.942c0,73.963,60.174,134.137,134.137,134.137
		c4.938,0,8.942-4.004,8.942-8.942s-4.004-8.942-8.942-8.942c-64.104,0-116.252-52.148-116.252-116.252
		C70.005,320.802,66.001,316.798,61.062,316.798z"/>
	<path style="fill:#314E55;" d="M187.794,494.115c-93.686,0-169.907-76.221-169.907-169.907c0-4.938-4.004-8.942-8.942-8.942
		s-8.942,4.004-8.942,8.942C0.002,427.758,84.244,512,187.794,512c4.938,0,8.942-4.004,8.942-8.942S192.732,494.115,187.794,494.115
		z"/>
</g>
<g>
</g>
<g>
</g>
<g>
</g>
<g>
</g>
<g>
</g>
<g>
</g>
<g>
</g>
<g>
</g>
<g>
</g>
<g>
</g>
<g>
</g>
<g>
</g>
<g>
</g>
<g>
</g>
<g>
</g>
</svg>
