<?xml version="1.0" encoding="iso-8859-1"?>
<svg version="1.1" id="Layer_1" xmlns="http://www.w3.org/2000/svg" xmlns:xlink="http://www.w3.org/1999/xlink" x="0px" y="0px"
	 viewBox="0 0 512 512" style="enable-background:new 0 0 512 512;" xml:space="preserve">
<polygon style="fill:#E5D85A;" points="185.314,285.232 64.909,391.091 186.182,391.091 186.182,347.253 "/>
<path style="fill:#D26CBA;" d="M279.264,78.409c-0.382-12.5-10.673-22.555-23.264-22.555s-22.882,10.055-23.264,22.555
	c1.986,1.827,10.277,4.904,23.264,4.904C268.986,83.314,277.277,80.236,279.264,78.409z"/>
<path style="fill:#C4D455;" d="M205.545,400.268c0.017,1.291-0.256,2.546-0.745,3.714v24.236h102.4v-24.236
	c-0.489-1.168-0.762-2.423-0.745-3.714l0.745-53.291V69.755c0-28.195-22.968-51.136-51.2-51.136s-51.2,22.941-51.2,51.136v277.223
	L205.545,400.268z M256,37.236c23.1,0,41.891,18.791,41.891,41.891c0,14.068-16.05,22.804-41.891,22.804
	c-9.605,0-18.705-1.4-25.618-3.945c-14.159-5.214-16.273-14.055-16.273-18.859C214.109,56.027,232.9,37.236,256,37.236z"/>
<g>
	<polygon style="fill:#D8D8D8;" points="294.336,493.382 329.373,493.382 311.855,458.341 	"/>
	<polygon style="fill:#D8D8D8;" points="182.627,493.382 217.664,493.382 200.145,458.341 	"/>
</g>
<polygon style="fill:#E5D85A;" points="325.818,347.253 325.818,391.091 447.091,391.091 326.686,285.232 "/>
<g>
	<path style="fill:#314E55;" d="M477.923,393.409L325.818,259.68V69.755C325.818,31.291,294.5,0,256,0s-69.818,31.291-69.818,69.755
		V259.68L34.077,393.409c-2.909,2.559-3.932,6.65-2.564,10.277c1.364,3.623,4.836,6.023,8.709,6.023h145.959v27.818
		c0,1.659,0.552,3.136,1.313,4.484l-28.258,56.516c-1.441,2.886-1.286,6.314,0.409,9.059c1.695,2.741,4.691,4.413,7.918,4.413
		h65.164c3.227,0,6.223-1.673,7.918-4.414c1.695-2.745,1.85-6.173,0.409-9.059l-25.845-51.691h81.582l-25.846,51.691
		c-1.441,2.886-1.286,6.314,0.409,9.059c1.695,2.741,4.691,4.414,7.918,4.414h65.164c3.227,0,6.223-1.673,7.918-4.414
		c1.695-2.745,1.85-6.173,0.409-9.059l-28.258-56.516c0.761-1.348,1.313-2.825,1.313-4.484v-27.818h145.959
		c3.873,0,7.345-2.4,8.709-6.023C481.855,400.059,480.832,395.968,477.923,393.409z M256,18.618c28.232,0,51.2,22.941,51.2,51.136
		v277.223l-0.745,53.291c-0.017,1.291,0.256,2.546,0.745,3.714v24.236H204.8v-24.236c0.489-1.168,0.762-2.423,0.745-3.714
		l-0.745-53.291V69.755C204.8,41.559,227.768,18.618,256,18.618z M64.909,391.091l120.404-105.859l0.868,62.022v43.837H64.909z
		 M182.627,493.382l17.518-35.041l17.518,35.041H182.627z M294.336,493.382l17.518-35.041l17.518,35.041H294.336z M325.818,391.091
		v-43.837l0.868-62.022l120.404,105.859H325.818z"/>
	<path style="fill:#314E55;" d="M230.382,97.986c6.914,2.546,16.014,3.945,25.618,3.945c25.841,0,41.891-8.736,41.891-22.804
		c0-23.1-18.791-41.891-41.891-41.891s-41.891,18.791-41.891,41.891C214.109,83.932,216.223,92.773,230.382,97.986z M256,55.855
		c12.591,0,22.882,10.055,23.264,22.555c-1.986,1.827-10.277,4.904-23.264,4.904c-12.986,0-21.277-3.077-23.264-4.904
		C233.118,65.909,243.409,55.855,256,55.855z"/>
</g>
</svg>
