<svg width="180" height="180" viewBox="0 0 180 180" fill="none" xmlns="http://www.w3.org/2000/svg"><style>@media (prefers-color-scheme:dark){path{fill:#fafafa}}</style><path d="M139 70.069c0 6.685-5.355 12.042-12 12.042-6.452 0-12-5.357-12-12.042C115 63.383 120.548 58 127 58c6.651 0 12 5.383 12 12.069zm0 38.924c0 6.686-5.355 12.069-12 12.069-6.452 0-12-5.383-12-12.069 0-6.672 5.548-12.042 12-12.042 6.651 0 12 5.37 12 12.042zm0 38.965c0 6.659-5.355 12.042-12 12.042-6.452 0-12-5.383-12-12.042 0-6.686 5.548-12.069 12-12.069 6.651.007 12 5.383 12 12.069zM103 31.069c0 6.685-5.356 12.042-12 12.042-6.452 0-12-5.357-12-12.042C79 24.383 84.541 19 91 19c6.651 0 12 5.383 12 12.069zm0 38.924c0 6.686-5.356 12.07-12 12.07-6.452 0-12-5.384-12-12.07 0-6.672 5.541-12.042 12-12.042 6.651 0 12 5.37 12 12.042zm0 38.965C103 115.617 97.644 121 91 121c-6.452 0-12-5.383-12-12.042 0-6.686 5.541-12.069 12-12.069 6.651.007 12 5.383 12 12.069zM65 70.069c0 6.685-5.355 12.042-12 12.042-6.452 0-12-5.357-12-12.042C41 63.383 46.541 58 53 58c6.651 0 12 5.383 12 12.069zm0 38.924c0 6.686-5.355 12.069-12 12.069-6.452 0-12-5.383-12-12.069 0-6.672 5.541-12.042 12-12.042 6.651 0 12 5.37 12 12.042zm0 38.965C65 154.617 59.645 160 53 160c-6.452 0-12-5.383-12-12.042 0-6.686 5.541-12.069 12-12.069 6.651.007 12 5.383 12 12.069z" fill="#282c34"/></svg>